HIERARCHY
ROOT Hips
{
	OFFSET 0.00 0.00 0.00
	CHANNELS 6 Xposition Yposition Zposition Xrotation Yrotation Zrotation
	JOINT Spine
	{
		OFFSET 0.00000 1.75157 2.62736
		CHANNELS 3 Xrotation Yrotation Zrotation
		JOINT Spine1
		{
			OFFSET 0.00000 0.60831 3.44992
			CHANNELS 3 Xrotation Yrotation Zrotation
			JOINT Spine2
			{
				OFFSET 0.00000 0.30532 3.48981
				CHANNELS 3 Xrotation Yrotation Zrotation
				JOINT Spine3
				{
					OFFSET 0.00000 0.00000 3.50314
					CHANNELS 3 Xrotation Yrotation Zrotation
					JOINT Neck
					{
						OFFSET 0.00000 -1.31367 9.19575
						CHANNELS 3 Xrotation Yrotation Zrotation
						JOINT Head
						{
							OFFSET 0.00000 -0.83643 4.74364
							CHANNELS 3 Xrotation Yrotation Zrotation
							End Site
							{
								OFFSET 0.00000 0.00001 5.67071
							}
						}
					}
					JOINT RightShoulder
					{
						OFFSET -1.05974 -1.76624 5.72262
						CHANNELS 3 Xrotation Yrotation Zrotation
						JOINT RightArm
						{
							OFFSET -5.26340 0.00000 0.00000
							CHANNELS 3 Xrotation Yrotation Zrotation
							JOINT RightForeArm
							{
								OFFSET -10.14667 0.00000 0.00000
								CHANNELS 3 Xrotation Yrotation Zrotation
								JOINT RightHand
								{
									OFFSET -8.53343 0.00000 0.00000
									CHANNELS 3 Xrotation Yrotation Zrotation
									JOINT RightHandEnd
									{
										OFFSET -2.46135 0.00000 0.00000
										CHANNELS 3 Xrotation Yrotation Zrotation
										End Site
										{
											OFFSET -2.46135 0.00000 0.00000
										}
									}
									JOINT RightHandThumb1
									{
										OFFSET -0.98454 -1.64090 -0.65636
										CHANNELS 3 Yrotation Xrotation Zrotation
										End Site
										{
											OFFSET -2.37748 -0.63704 0.00000
										}
									}
								}
							}
						}
					}
					JOINT LeftShoulder
					{
						OFFSET 1.05974 -1.76624 5.72262
						CHANNELS 3 Xrotation Yrotation Zrotation
						JOINT LeftArm
						{
							OFFSET 5.26340 0.00000 0.00000
							CHANNELS 3 Xrotation Yrotation Zrotation
							JOINT LeftForeArm
							{
								OFFSET 10.14667 0.00000 0.00000
								CHANNELS 3 Xrotation Yrotation Zrotation
								JOINT LeftHand
								{
									OFFSET 8.53343 0.00000 0.00000
									CHANNELS 3 Xrotation Yrotation Zrotation
									JOINT LeftHandEnd
									{
										OFFSET 2.46135 0.00000 0.00000
										CHANNELS 3 Xrotation Yrotation Zrotation
										End Site
										{
											OFFSET 2.46135 0.00000 0.00000
										}
									}
									JOINT LeftHandThumb1
									{
										OFFSET 0.98454 -1.64090 -0.65636
										CHANNELS 3 Yrotation Xrotation Zrotation
										End Site
										{
											OFFSET 2.37748 -0.63704 0.00000
										}
									}
								}
							}
						}
					}
				}
			}
		}
	}
	JOINT RightUpLeg
	{
		OFFSET -3.14391 0.00000 -0.91845
		CHANNELS 3 Xrotation Yrotation Zrotation
		JOINT RightLeg
		{
			OFFSET 0.00000 0.00000 -14.43197
			CHANNELS 3 Xrotation Yrotation Zrotation
			JOINT RightFoot
			{
				OFFSET 0.00000 0.00000 -14.31693
				CHANNELS 3 Xrotation Yrotation Zrotation
				JOINT RightToeBase
				{
					OFFSET 0.00000 -4.51635 -1.64382
					CHANNELS 3 Xrotation Yrotation Zrotation
					End Site
					{
						OFFSET 0.00000 -2.54339 -0.00000
					}
				}
			}
		}
	}
	JOINT LeftUpLeg
	{
		OFFSET 3.14391 0.00000 -0.91845
		CHANNELS 3 Xrotation Yrotation Zrotation
		JOINT LeftLeg
		{
			OFFSET 0.00000 0.00000 -14.43197
			CHANNELS 3 Xrotation Yrotation Zrotation
			JOINT LeftFoot
			{
				OFFSET 0.00000 0.00000 -14.31693
				CHANNELS 3 Xrotation Yrotation Zrotation
				JOINT LeftToeBase
				{
					OFFSET 0.00000 -4.51635 -1.64382
					CHANNELS 3 Xrotation Yrotation Zrotation
					End Site
					{
						OFFSET 0.00000 -2.54339 -0.00000
					}
				}
			}
		}
	}
}
MOTION
Frames: 9
Frame Time: 0.008342
 5.8040 -11.2504 31.8278 1.8849 -1.3202 -86.2921 -0.5128 -0.5007 0.0812 -0.6500 -0.6759 -0.0744 1.9138 -0.0312 -1.1158 0.4367 0.2348 -0.2284 -7.4679 1.4756 -1.9773 -9.1109 0.3427 -3.5528 -1.1393 9.0619 4.3189 -14.1497 -8.2043 -6.5570 0.0000 0.0000 1.4561 1.7296 24.2450 -11.0156 0.0000 -0.0000 -0.0000 -0.0000 -0.0000 -0.0000 -2.2120 -10.4460 -4.3226 -8.0075 18.1941 22.3653 -0.0000 -0.0000 -12.0611 -4.7538 -5.6536 4.1574 0.0000 -0.0000 0.0000 0.0000 0.0000 -0.0000 3.2321 0.2657 -7.5153 -3.5560 0.0000 -0.0000 -3.9509 -5.4172 -15.6685 0.8122 0.0000 0.0000 -1.9366 -6.0137 28.4304 2.1514 0.0000 0.0000 -0.4902 3.1482 1.2639 1.4569 0.0000 0.0000
 5.8035 -11.2538 31.8279 1.8809 -1.3220 -86.3107 -0.5170 -0.5019 0.0803 -0.6545 -0.6769 -0.0745 1.9187 -0.0308 -1.1148 0.4373 0.2350 -0.2278 -7.4854 1.4573 -1.9713 -9.0884 0.3529 -3.5358 -1.1550 9.0548 4.3308 -14.1313 -8.2088 -6.5657 0.0000 0.0000 1.4714 1.7870 24.3095 -11.0679 0.0000 -0.0000 0.0000 -0.0000 -0.0000 0.0000 -2.2247 -10.4474 -4.3285 -8.0103 18.2026 22.3746 -0.0000 -0.0000 -12.0684 -4.7453 -5.6725 4.1566 -0.0000 0.0000 -0.0000 0.0000 -0.0000 -0.0000 3.2301 0.2765 -7.5134 -3.5567 0.0000 -0.0000 -3.9464 -5.4174 -15.6536 0.8120 0.0000 0.0000 -1.9317 -6.0025 28.4358 2.1493 0.0000 0.0000 -0.4971 3.1415 1.2765 1.4946 0.0000 0.0000
 5.8028 -11.2582 31.8279 1.8759 -1.3245 -86.3352 -0.5230 -0.5027 0.0799 -0.6598 -0.6788 -0.0751 1.9254 -0.0314 -1.1134 0.4384 0.2352 -0.2275 -7.5086 1.4362 -1.9623 -9.0598 0.3663 -3.5139 -1.1737 9.0477 4.3443 -14.1113 -8.2143 -6.5754 0.0000 0.0000 1.4887 1.8449 24.3793 -11.1225 -0.0000 0.0000 -0.0000 0.0000 -0.0000 -0.0000 -2.2381 -10.4477 -4.3339 -8.0147 18.2126 22.3848 -0.0000 -0.0000 -12.0774 -4.7356 -5.6982 4.1535 -0.0000 0.0000 -0.0000 -0.0000 0.0000 -0.0000 3.2268 0.2906 -7.5119 -3.5565 0.0000 -0.0000 -3.9412 -5.4180 -15.6326 0.8144 0.0000 0.0000 -1.9251 -5.9878 28.4428 2.1453 0.0000 0.0000 -0.5055 3.1319 1.2934 1.5273 0.0000 0.0000
 5.8019 -11.2636 31.8280 1.8702 -1.3276 -86.3654 -0.5307 -0.5038 0.0794 -0.6665 -0.6810 -0.0757 1.9345 -0.0327 -1.1111 0.4399 0.2346 -0.2263 -7.5372 1.4136 -1.9503 -9.0252 0.3817 -3.4878 -1.1945 9.0389 4.3567 -14.0915 -8.2181 -6.5845 0.0000 0.0000 1.5073 1.8976 24.4493 -11.1747 -0.0000 0.0000 -0.0000 0.0000 -0.0000 0.0000 -2.2534 -10.4467 -4.3409 -8.0197 18.2237 22.3968 -0.0000 -0.0000 -12.0884 -4.7249 -5.7290 4.1471 -0.0000 -0.0000 -0.0000 0.0000 -0.0000 0.0000 3.2222 0.3075 -7.5115 -3.5556 0.0000 -0.0000 -3.9352 -5.4194 -15.6052 0.8182 0.0000 0.0000 -1.9164 -5.9699 28.4507 2.1392 0.0000 0.0000 -0.5153 3.1195 1.3151 1.5516 0.0000 0.0000
 5.8009 -11.2699 31.8281 1.8643 -1.3309 -86.4008 -0.5394 -0.5052 0.0787 -0.6744 -0.6837 -0.0764 1.9455 -0.0351 -1.1080 0.4416 0.2335 -0.2248 -7.5698 1.3904 -1.9336 -8.9855 0.3994 -3.4594 -1.2168 9.0292 4.3685 -14.0727 -8.2203 -6.5933 0.0000 0.0000 1.5259 1.9402 24.5169 -11.2195 0.0000 -0.0000 -0.0000 0.0000 0.0000 -0.0000 -2.2698 -10.4444 -4.3482 -8.0250 18.2358 22.4094 -0.0000 -0.0000 -12.1001 -4.7151 -5.7644 4.1371 0.0000 0.0000 0.0000 0.0000 0.0000 -0.0000 3.2167 0.3264 -7.5117 -3.5533 0.0000 -0.0000 -3.9289 -5.4217 -15.5725 0.8250 0.0000 0.0000 -1.9054 -5.9497 28.4591 2.1310 0.0000 0.0000 -0.5264 3.1043 1.3414 1.5648 0.0000 0.0000
 5.7993 -11.2771 31.8282 1.8560 -1.3292 -86.4410 -0.5455 -0.5062 0.0783 -0.6813 -0.6841 -0.0768 1.9571 -0.0407 -1.1039 0.4435 0.2320 -0.2236 -7.6043 1.3683 -1.9126 -8.9414 0.4168 -3.4286 -1.2410 9.0199 4.3811 -14.0559 -8.2205 -6.6043 0.0000 0.0000 1.5453 1.9702 24.5761 -11.2542 0.0000 0.0000 0.0000 -0.0000 0.0000 0.0000 -2.2854 -10.4420 -4.3552 -8.0317 18.2494 22.4234 -0.0000 -0.0000 -12.1131 -4.7061 -5.8021 4.1244 -0.0000 0.0000 0.0000 0.0000 -0.0000 0.0000 3.2181 0.3492 -7.5122 -3.5526 0.0000 -0.0000 -3.9224 -5.4254 -15.5350 0.8350 0.0000 0.0000 -1.8839 -5.9243 28.4690 2.1165 0.0000 0.0000 -0.5368 3.0886 1.3717 1.5654 0.0000 0.0000
 5.7980 -11.2846 31.8282 1.8507 -1.3333 -86.4840 -0.5559 -0.5079 0.0772 -0.6918 -0.6889 -0.0778 1.9712 -0.0433 -1.0991 0.4456 0.2289 -0.2200 -7.6423 1.3477 -1.8892 -8.8923 0.4340 -3.3967 -1.2631 9.0078 4.3862 -14.0458 -8.2176 -6.6086 0.0000 0.0000 1.5604 1.9865 24.6292 -11.2755 -0.0000 0.0000 0.0000 0.0000 -0.0000 -0.0000 -2.3030 -10.4373 -4.3642 -8.0390 18.2606 22.4384 -0.0000 -0.0000 -12.1269 -4.6984 -5.8395 4.1092 -0.0000 0.0000 -0.0000 -0.0000 0.0000 -0.0000 3.2103 0.3701 -7.5124 -3.5478 0.0000 -0.0000 -3.9161 -5.4296 -15.4950 0.8475 0.0000 0.0000 -1.8700 -5.9017 28.4777 2.1047 0.0000 0.0000 -0.5500 3.0694 1.4060 1.5535 0.0000 0.0000
 5.7961 -11.2926 31.8282 1.8427 -1.3335 -86.5301 -0.5648 -0.5084 0.0766 -0.7010 -0.6901 -0.0782 1.9860 -0.0507 -1.0935 0.4478 0.2256 -0.2171 -7.6810 1.3315 -1.8616 -8.8396 0.4482 -3.3649 -1.2869 8.9969 4.3931 -14.0387 -8.2120 -6.6178 0.0000 0.0000 1.5769 1.9881 24.6710 -11.2851 -0.0000 0.0000 0.0000 -0.0000 0.0000 0.0000 -2.3206 -10.4324 -4.3721 -8.0473 18.2720 22.4541 -0.0000 -0.0000 -12.1406 -4.6924 -5.8756 4.0922 -0.0000 -0.0000 -0.0000 -0.0000 0.0000 0.0000 3.2078 0.3946 -7.5127 -3.5439 0.0000 -0.0000 -3.9104 -5.4353 -15.4521 0.8626 0.0000 0.0000 -1.8473 -5.8741 28.4869 2.0865 0.0000 0.0000 -0.5612 3.0513 1.4436 1.5297 0.0000 0.0000
 5.7943 -11.3007 31.8282 1.8365 -1.3357 -86.5770 -0.5753 -0.5093 0.0758 -0.7117 -0.6938 -0.0792 2.0021 -0.0559 -1.0868 0.4501 0.2213 -0.2127 -7.7203 1.3186 -1.8323 -8.7831 0.4595 -3.3341 -1.3088 8.9843 4.3949 -14.0382 -8.2036 -6.6242 0.0000 0.0000 1.5894 1.9776 24.7051 -11.2807 -0.0000 -0.0000 -0.0000 -0.0000 -0.0000 0.0000 -2.3403 -10.4276 -4.3826 -8.0576 18.2809 22.4735 -0.0000 -0.0000 -12.1553 -4.6869 -5.9060 4.0753 -0.0000 0.0000 -0.0000 -0.0000 -0.0000 0.0000 3.2021 0.4175 -7.5135 -3.5383 0.0000 -0.0000 -3.9051 -5.4422 -15.4081 0.8772 0.0000 0.0000 -1.8268 -5.8484 28.4938 2.0687 0.0000 0.0000 -0.5737 3.0323 1.4849 1.4974 0.0000 0.0000
